
      <svg width="200" height="100" viewBox="0 0 200 100" 
           xmlns="http://www.w3.org/2000/svg" preserveAspectRatio="xMidYMid meet">
        
      <defs>
        
        
      </defs>
    
        
      <rect x="2" y="2" 
        width="196" height="96"
        rx="8" ry="8" 
        fill="none" stroke="none" stroke-width="0" />
    
        
      <text x="117" y="50" dominant-baseline="middle" text-anchor="middle"
        font-family="'Georgia', serif" font-size="24px" fill="#452b5f"
        font-style="italic" font-weight="bold">
        AvaAI
      </text>
    
        
        <g transform="translate(33, 36)">
          <g fill="#452b5f">
            <svg xmlns="http://www.w3.org/2000/svg" viewBox="0 0 640 512" width="24" height="24">
        <path  d="M128 32C92.7 32 64 60.7 64 96l0 256 64 0 0-256 384 0 0 256 64 0 0-256c0-35.3-28.7-64-64-64L128 32zM19.2 384C8.6 384 0 392.6 0 403.2C0 445.6 34.4 480 76.8 480l486.4 0c42.4 0 76.8-34.4 76.8-76.8c0-10.6-8.6-19.2-19.2-19.2L19.2 384z" />
    </svg>
          </g>
        </g>
      
      </svg>
    