
      <svg width="318.609375" height="100" viewBox="0 0 318.609375 100" 
           xmlns="http://www.w3.org/2000/svg" preserveAspectRatio="xMidYMid meet">
        
      <defs>
        
        
          <linearGradient id="textGradient" x1="0%" y1="0%" x2="100%" y2="100%">
            <stop offset="0%" style="stop-color:#db1a1a;stop-opacity:1" />
            <stop offset="100%" style="stop-color:#a3008d;stop-opacity:1" />
          </linearGradient>
        
      </defs>
    
        
      <rect x="2" y="2" 
        width="314.609375" height="96"
        rx="40" ry="40" 
        fill="none" stroke="none" stroke-width="0" />
    
        
      <text x="176.3046875" y="50" dominant-baseline="middle" text-anchor="middle"
        font-family="'Verdana', sans-serif" font-size="24px" fill="url(#textGradient)"
        font-style="normal" font-weight="bold">
        StudentManaging
      </text>
    
        
        <g transform="translate(24, 36)">
          <g fill="url(#textGradient)">
            <svg xmlns="http://www.w3.org/2000/svg" viewBox="0 0 384 512" width="24" height="24">
        <path  d="M272 384c9.6-31.9 29.5-59.1 49.2-86.2c0 0 0 0 0 0c5.2-7.1 10.4-14.2 15.4-21.4c19.8-28.5 31.4-63 31.4-100.3C368 78.8 289.2 0 192 0S16 78.8 16 176c0 37.3 11.6 71.9 31.4 100.3c5 7.2 10.2 14.3 15.4 21.4c0 0 0 0 0 0c19.8 27.1 39.7 54.4 49.2 86.2l160 0zM192 512c44.2 0 80-35.8 80-80l0-16-160 0 0 16c0 44.2 35.8 80 80 80zM112 176c0 8.8-7.2 16-16 16s-16-7.2-16-16c0-61.9 50.1-112 112-112c8.8 0 16 7.2 16 16s-7.2 16-16 16c-44.2 0-80 35.8-80 80z" />
    </svg>
          </g>
        </g>
      
      </svg>
    