<svg xmlns="http://www.w3.org/2000/svg" version="1.1" xmlns:xlink="http://www.w3.org/1999/xlink" xmlns:svgjs="http://svgjs.dev/svgjs" width="512" height="512"><svg version="1.0" xmlns="http://www.w3.org/2000/svg" xmlns:xlink="http://www.w3.org/1999/xlink" width="512" height="512" viewBox="0 0 512 512">
    <svg id="SvgjsSvg1041" version="1.0" xmlns="http://www.w3.org/2000/svg" width="0" height="0" viewBox="0 0 340.000000 250.000000" preserveAspectRatio="xMidYMid meet" color-interpolation-filters="sRGB" class="el-tooltip" style="margin: auto;" xmlns:xlink="http://www.w3.org/1999/xlink">
    <defs>
      <pattern id="SvgjsPattern1040" patternUnits="userSpaceOnUse" width="100%" height="100%">
        <image xlink:href="https://www.logoai.com/img/watermark/LOGOAI-watermark.png" x="0" y="0" width="100%" height="100%">
        </image>
      </pattern>
                    <linearGradient id="SvgjsLinearGradient1039" x1="0%" y1="0%" x2="100%" y2="0%">
          <stop offset="0%" stop-color="#fa71cd"></stop>
          <stop offset="100%" stop-color="#9b59b6"></stop>
        </linearGradient>
              <linearGradient id="SvgjsLinearGradient1038" x1="0%" y1="0%" x2="100%" y2="0%">
          <stop offset="0%" stop-color="#f9d423"></stop>
          <stop offset="100%" stop-color="#f83600"></stop>
        </linearGradient>
              <linearGradient id="SvgjsLinearGradient1037" x1="0%" y1="0%" x2="100%" y2="0%">
          <stop offset="0%" stop-color="#0064d2"></stop>
          <stop offset="100%" stop-color="#1cb0f6"></stop>
        </linearGradient>
              <linearGradient id="SvgjsLinearGradient1036" x1="0%" y1="0%" x2="100%" y2="0%">
          <stop offset="0%" stop-color="#f00978"></stop>
          <stop offset="100%" stop-color="#3f51b1"></stop>
        </linearGradient>
              <linearGradient id="SvgjsLinearGradient1035" x1="0%" y1="0%" x2="100%" y2="0%">
          <stop offset="0%" stop-color="#7873f5"></stop>
          <stop offset="100%" stop-color="#ec77ab"></stop>
        </linearGradient>
              <linearGradient id="SvgjsLinearGradient1034" x1="0%" y1="0%" x2="100%" y2="0%">
          <stop offset="0%" stop-color="#f9d423"></stop>
          <stop offset="100%" stop-color="#e14fad"></stop>
        </linearGradient>
              <linearGradient id="SvgjsLinearGradient1033" x1="0%" y1="0%" x2="100%" y2="0%">
          <stop offset="0%" stop-color="#009efd"></stop>
          <stop offset="100%" stop-color="#2af598"></stop>
        </linearGradient>
              <linearGradient id="SvgjsLinearGradient1032" x1="0%" y1="0%" x2="100%" y2="0%">
          <stop offset="0%" stop-color="#ffcc00"></stop>
          <stop offset="100%" stop-color="#00b140"></stop>
        </linearGradient>
              <linearGradient id="SvgjsLinearGradient1031" x1="0%" y1="0%" x2="100%" y2="0%">
          <stop offset="0%" stop-color="#d51007"></stop>
          <stop offset="100%" stop-color="#ff8177"></stop>
        </linearGradient>
              <linearGradient id="SvgjsLinearGradient1030" x1="0%" y1="0%" x2="100%" y2="0%">
          <stop offset="0%" stop-color="#a2b6df"></stop>
          <stop offset="100%" stop-color="#0c3483"></stop>
        </linearGradient>
              <linearGradient id="SvgjsLinearGradient1029" x1="0%" y1="0%" x2="100%" y2="0%">
          <stop offset="0%" stop-color="#7ac5d8"></stop>
          <stop offset="100%" stop-color="#eea2a2"></stop>
        </linearGradient>
              <linearGradient id="SvgjsLinearGradient1028" x1="0%" y1="0%" x2="100%" y2="0%">
          <stop offset="0%" stop-color="#00ecbc"></stop>
          <stop offset="100%" stop-color="#007adf"></stop>
        </linearGradient>
          </defs>
  </svg>
    <rect x="0" y="0" width="100%" height="100%" fill="transparent" fill-opacity="1"></rect>
    <svg data-v-0dd9719b="" version="1.0" xmlns="http://www.w3.org/2000/svg" xmlns:xlink="http://www.w3.org/1999/xlink" width="100%" height="100%" viewBox="0 0 100 100" preserveAspectRatio="xMidYMid meet" color-interpolation-filters="sRGB" style="margin: auto;"> <rect data-v-0dd9719b="" x="0" y="0" width="100%" height="100%" fill="#ffffff" fill-opacity="1" class="background" style="display: none;"></rect> <rect data-v-0dd9719b="" x="0" y="0" width="100%" height="100%" fill="url(#watermark)" fill-opacity="1" class="watermarklayer" style="display: none;"></rect> <g data-v-0dd9719b="" fill="#333" class="iconsvg-imagesvg"><rect fill="#333" fill-opacity="0" stroke-width="2" x="0" y="0" width="100" height="100" class="image-rect"></rect> <svg viewBox="0 0 60 60" x="0" y="0" width="100" height="100" class="image-svg-svg bn" style="overflow: visible;"><g hollow-target="iconBnFill" mask="url(#a3b0d628-510d-4d0d-b4e8-447b007ad1f9)"><g><svg xmlns="http://www.w3.org/2000/svg" xmlns:xlink="http://www.w3.org/1999/xlink" xml:space="preserve" version="1.1" style="shape-rendering: geometricprecision; text-rendering: geometricprecision; overflow: visible;" viewBox="0 0 249 249" x="0" y="0" fill-rule="evenodd" clip-rule="evenodd" width="60" height="60" filtersec="colorsb8522020882" filter="url(#ld440_iDvvpJsy7S8tatz)"><g transform="scale(1, 1) skewX(0)"><defs><filter id="SvgjsFilter1027"><feColorMatrix type="matrix" values="0 0 0 0 0.19921875  0 0 0 0 0.19921875  0 0 0 0 0.19921875  0 0 0 1 0"></feColorMatrix></filter></defs><g><path class="fil0" d="M125 0c68,0 124,56 124,125 0,68 -56,124 -124,124 -69,0 -125,-56 -125,-124 0,-69 56,-125 125,-125z"></path></g></g></svg></g> <g filter="url(#colors9560338112)"><svg xmlns="http://www.w3.org/2000/svg" xmlns:xlink="http://www.w3.org/1999/xlink" viewBox="0 0 95.484375 60.609375" width="45" height="45" x="7.5" y="7.5" class="image-svg-letter"><path transform="translate(3.375 57.7265625)" d="M34.56-20.14L34.56-20.14L34.07-20.64Q33.36-20.64 32.71-19.74Q32.06-18.84 31.45-17.46Q30.83-16.07 30.23-14.40Q29.64-12.73 29.02-11.18Q28.41-9.63 27.77-8.42Q27.14-7.21 26.40-6.71L26.40-6.71L24.47-6.71Q22.85-6.71 21.18-7.14Q19.51-7.56 17.98-8.33Q16.45-9.11 15.17-10.16Q13.89-11.21 12.97-12.48L12.97-12.48Q12.80-12.66 12.60-13.29Q12.41-13.92 12.18-14.59Q11.95-15.26 11.67-15.79Q11.39-16.31 11.04-16.31L11.04-16.31Q10.44-16.31 10.00-15.56Q9.56-14.80 9.14-13.69Q8.72-12.59 8.23-11.27Q7.73-9.95 7.03-8.84Q6.33-7.73 5.33-6.98Q4.32-6.22 2.88-6.22L2.88-6.22Q2.14-6.22 1.28-6.33Q0.42-6.43-0.44-6.71Q-1.30-7.00-2.07-7.45Q-2.85-7.91-3.38-8.65L-3.38-8.65L-3.38-11.53Q-3.38-12.23-3.22-13.89Q-3.06-15.54-2.79-17.74Q-2.53-19.93-2.18-22.48Q-1.83-25.03-1.39-27.60Q-0.95-30.16-0.47-32.55Q0-34.95 0.49-36.77Q0.98-38.60 1.46-39.71Q1.93-40.82 2.39-40.82L2.39-40.82Q3.59-40.82 5.20-40.45Q6.82-40.08 8.61-39.43Q10.41-38.78 11.85-37.78Q13.29-36.77 14.63-30.43Q15.96-24.08 18.32-18.67L18.32-18.67Q25.31-30.13 26.68-32.66Q28.05-35.19 29.16-37.62Q30.27-40.04 31.20-42.40Q32.13-44.75 33.08-47.14Q34.03-49.54 35.09-52.01Q36.14-54.49 37.44-57.13L37.44-57.13Q37.62-57.48 37.81-57.60Q38.00-57.73 38.21-57.73L38.21-57.73Q38.43-57.73 38.71-57.66Q38.99-57.59 39.38-57.59L39.38-57.59Q40.64-57.59 42.24-57.16Q43.84-56.74 45.42-56.04L45.42-56.04Q49.22-53.09 48.13-41.31L48.13-41.31Q47.99-32.38 47.95-31.64Q47.92-30.90 47.87-29.88Q47.81-28.86 47.76-27.67Q47.71-26.47 47.65-25.31Q47.60-24.15 47.57-23.17Q47.53-22.18 47.53-21.59L47.53-21.59L47.53-9.11Q47.53-8.75 47.46-7.65Q47.39-6.54 47.29-5.27Q47.18-4.01 47.11-2.90Q47.04-1.79 47.04-1.44L47.04-1.44Q47.04-0.91 46.86-0.16Q46.69 0.60 46.32 1.27Q45.95 1.93 45.42 2.41Q44.89 2.88 44.16 2.88L44.16 2.88Q41.41 2.88 39.62 1.62Q37.83 0.35 36.76-1.71Q35.68-3.76 35.21-6.31Q34.73-8.86 34.59-11.41Q34.45-13.96 34.51-16.28Q34.56-18.60 34.56-20.14ZM56.11-4.82L56.11-4.82L56.11-6.71Q56.11-9.95 56.64-13.20Q57.16-16.45 57.80-19.74Q58.43-23.03 58.96-26.37Q59.48-29.71 59.48-33.12L59.48-33.12L59.48-34.56Q58.99-34.91 58.24-35.10Q57.48-35.30 56.64-35.47Q55.79-35.65 54.93-35.88Q54.07-36.11 53.38-36.53Q52.70-36.95 52.26-37.62Q51.82-38.29 51.82-39.38L51.82-39.38L51.82-40.32Q56.11-45.35 61.52-47.64Q66.94-49.92 73.41-49.92L73.41-49.92Q74.74-49.92 76.62-49.64Q78.50-49.36 80.60-48.78Q82.69-48.20 84.74-47.34Q86.80-46.48 88.44-45.30Q90.07-44.12 91.09-42.64Q92.11-41.17 92.11-39.38L92.11-39.38Q92.11-37.44 91.02-35.58Q89.93-33.71 88.15-32.01Q86.38-30.30 84.15-28.79Q81.91-27.28 79.61-26.05Q77.31-24.82 75.16-23.92Q73.02-23.03 71.47-22.57L71.47-22.57L70.52-21.59Q70.28-20.39 69.98-18.58Q69.68-16.77 69.22-14.75Q68.77-12.73 68.08-10.69Q67.39-8.65 66.41-7.03Q65.43-5.41 64.07-4.39Q62.72-3.38 60.93-3.38L60.93-3.38Q60.40-3.38 59.71-3.39Q59.03-3.41 58.34-3.55Q57.66-3.69 57.06-3.99Q56.46-4.29 56.11-4.82ZM65.25-38.39L65.25-38.39Q65.25-38.29 65.71-37.81Q66.16-37.34 66.88-36.69Q67.61-36.04 68.48-35.33Q69.36-34.63 70.15-34.01Q70.95-33.40 71.58-33.01Q72.21-32.63 72.46-32.63L72.46-32.63L73.41-33.12Q73.65-33.36 74.34-34.00Q75.02-34.63 75.94-35.51Q76.85-36.39 77.84-37.44Q78.82-38.50 79.65-39.53Q80.47-40.57 81.02-41.52Q81.56-42.47 81.56-43.21L81.56-43.21L81.07-43.66L78.68-43.66Q78.08-43.66 76.85-43.51Q75.62-43.35 74.13-43.05Q72.63-42.75 71.07-42.29Q69.50-41.84 68.20-41.26Q66.90-40.68 66.08-39.96Q65.25-39.23 65.25-38.39Z"></path></svg></g></g><mask id="SvgjsMask1026"><g fill="white"><svg xmlns="http://www.w3.org/2000/svg" xmlns:xlink="http://www.w3.org/1999/xlink" xml:space="preserve" version="1.1" style="shape-rendering: geometricprecision; text-rendering: geometricprecision; overflow: visible;" viewBox="0 0 249 249" x="0" y="0" fill-rule="evenodd" clip-rule="evenodd" width="60" height="60" filtersec="colorsb8522020882"><g transform="scale(1, 1) skewX(0)"><defs></defs><g><path d="M125 0c68,0 124,56 124,125 0,68 -56,124 -124,124 -69,0 -125,-56 -125,-124 0,-69 56,-125 125,-125z"></path></g></g></svg></g> <g fill="black"><svg xmlns="http://www.w3.org/2000/svg" xmlns:xlink="http://www.w3.org/1999/xlink" viewBox="0 0 95.484375 60.609375" width="45" height="45" x="7.5" y="7.5" class="image-svg-letter"><path transform="translate(3.375 57.7265625)" d="M34.56-20.14L34.56-20.14L34.07-20.64Q33.36-20.64 32.71-19.74Q32.06-18.84 31.45-17.46Q30.83-16.07 30.23-14.40Q29.64-12.73 29.02-11.18Q28.41-9.63 27.77-8.42Q27.14-7.21 26.40-6.71L26.40-6.71L24.47-6.71Q22.85-6.71 21.18-7.14Q19.51-7.56 17.98-8.33Q16.45-9.11 15.17-10.16Q13.89-11.21 12.97-12.48L12.97-12.48Q12.80-12.66 12.60-13.29Q12.41-13.92 12.18-14.59Q11.95-15.26 11.67-15.79Q11.39-16.31 11.04-16.31L11.04-16.31Q10.44-16.31 10.00-15.56Q9.56-14.80 9.14-13.69Q8.72-12.59 8.23-11.27Q7.73-9.95 7.03-8.84Q6.33-7.73 5.33-6.98Q4.32-6.22 2.88-6.22L2.88-6.22Q2.14-6.22 1.28-6.33Q0.42-6.43-0.44-6.71Q-1.30-7.00-2.07-7.45Q-2.85-7.91-3.38-8.65L-3.38-8.65L-3.38-11.53Q-3.38-12.23-3.22-13.89Q-3.06-15.54-2.79-17.74Q-2.53-19.93-2.18-22.48Q-1.83-25.03-1.39-27.60Q-0.95-30.16-0.47-32.55Q0-34.95 0.49-36.77Q0.98-38.60 1.46-39.71Q1.93-40.82 2.39-40.82L2.39-40.82Q3.59-40.82 5.20-40.45Q6.82-40.08 8.61-39.43Q10.41-38.78 11.85-37.78Q13.29-36.77 14.63-30.43Q15.96-24.08 18.32-18.67L18.32-18.67Q25.31-30.13 26.68-32.66Q28.05-35.19 29.16-37.62Q30.27-40.04 31.20-42.40Q32.13-44.75 33.08-47.14Q34.03-49.54 35.09-52.01Q36.14-54.49 37.44-57.13L37.44-57.13Q37.62-57.48 37.81-57.60Q38.00-57.73 38.21-57.73L38.21-57.73Q38.43-57.73 38.71-57.66Q38.99-57.59 39.38-57.59L39.38-57.59Q40.64-57.59 42.24-57.16Q43.84-56.74 45.42-56.04L45.42-56.04Q49.22-53.09 48.13-41.31L48.13-41.31Q47.99-32.38 47.95-31.64Q47.92-30.90 47.87-29.88Q47.81-28.86 47.76-27.67Q47.71-26.47 47.65-25.31Q47.60-24.15 47.57-23.17Q47.53-22.18 47.53-21.59L47.53-21.59L47.53-9.11Q47.53-8.75 47.46-7.65Q47.39-6.54 47.29-5.27Q47.18-4.01 47.11-2.90Q47.04-1.79 47.04-1.44L47.04-1.44Q47.04-0.91 46.86-0.16Q46.69 0.60 46.32 1.27Q45.95 1.93 45.42 2.41Q44.89 2.88 44.16 2.88L44.16 2.88Q41.41 2.88 39.62 1.62Q37.83 0.35 36.76-1.71Q35.68-3.76 35.21-6.31Q34.73-8.86 34.59-11.41Q34.45-13.96 34.51-16.28Q34.56-18.60 34.56-20.14ZM56.11-4.82L56.11-4.82L56.11-6.71Q56.11-9.95 56.64-13.20Q57.16-16.45 57.80-19.74Q58.43-23.03 58.96-26.37Q59.48-29.71 59.48-33.12L59.48-33.12L59.48-34.56Q58.99-34.91 58.24-35.10Q57.48-35.30 56.64-35.47Q55.79-35.65 54.93-35.88Q54.07-36.11 53.38-36.53Q52.70-36.95 52.26-37.62Q51.82-38.29 51.82-39.38L51.82-39.38L51.82-40.32Q56.11-45.35 61.52-47.64Q66.94-49.92 73.41-49.92L73.41-49.92Q74.74-49.92 76.62-49.64Q78.50-49.36 80.60-48.78Q82.69-48.20 84.74-47.34Q86.80-46.48 88.44-45.30Q90.07-44.12 91.09-42.64Q92.11-41.17 92.11-39.38L92.11-39.38Q92.11-37.44 91.02-35.58Q89.93-33.71 88.15-32.01Q86.38-30.30 84.15-28.79Q81.91-27.28 79.61-26.05Q77.31-24.82 75.16-23.92Q73.02-23.03 71.47-22.57L71.47-22.57L70.52-21.59Q70.28-20.39 69.98-18.58Q69.68-16.77 69.22-14.75Q68.77-12.73 68.08-10.69Q67.39-8.65 66.41-7.03Q65.43-5.41 64.07-4.39Q62.72-3.38 60.93-3.38L60.93-3.38Q60.40-3.38 59.71-3.39Q59.03-3.41 58.34-3.55Q57.66-3.69 57.06-3.99Q56.46-4.29 56.11-4.82ZM65.25-38.39L65.25-38.39Q65.25-38.29 65.71-37.81Q66.16-37.34 66.88-36.69Q67.61-36.04 68.48-35.33Q69.36-34.63 70.15-34.01Q70.95-33.40 71.58-33.01Q72.21-32.63 72.46-32.63L72.46-32.63L73.41-33.12Q73.65-33.36 74.34-34.00Q75.02-34.63 75.94-35.51Q76.85-36.39 77.84-37.44Q78.82-38.50 79.65-39.53Q80.47-40.57 81.02-41.52Q81.56-42.47 81.56-43.21L81.56-43.21L81.07-43.66L78.68-43.66Q78.08-43.66 76.85-43.51Q75.62-43.35 74.13-43.05Q72.63-42.75 71.07-42.29Q69.50-41.84 68.20-41.26Q66.90-40.68 66.08-39.96Q65.25-39.23 65.25-38.39Z"></path></svg></g></mask></svg> <defs><filter id="SvgjsFilter1025"><feColorMatrix type="matrix" values="0 0 0 0 0.19921875  0 0 0 0 0.19921875  0 0 0 0 0.19921875  0 0 0 1 0" class="icon-fecolormatrix"></feColorMatrix></filter> <filter id="SvgjsFilter1024"><feColorMatrix type="matrix" values="0 0 0 0 0.99609375  0 0 0 0 0.99609375  0 0 0 0 0.99609375  0 0 0 1 0" class="icon-fecolormatrix"></feColorMatrix></filter> <filter id="SvgjsFilter1023"><feColorMatrix type="matrix" values="0 0 0 0 0  0 0 0 0 0  0 0 0 0 0  0 0 0 1 0" class="icon-fecolormatrix"></feColorMatrix></filter></defs></g><defs v-gra="od"></defs></svg>
  </svg><style>@media (prefers-color-scheme: light) { :root { filter: contrast(1) brightness(0.1); } }
@media (prefers-color-scheme: dark) { :root { filter: none; } }
</style></svg>